<svg xmlns="http://www.w3.org/2000/svg" version="1.1" viewBox="68.525 163.399 327.651 560.470" preserveAspectRatio="xMidYMid meet">
<g id="KR">
<path id="KR-41" title="Gyeonggi" d="M149.025,214.1L141.551,212.231L139.059,213.788L133.454,218.459L130.028,223.442L133.765,228.113L140.061,228.402L143.419,230.293L144.042,233.407L142.485,236.21L137.503,235.587L137.191,239.324L135.633,240.259L135.945,242.75L137.813,243.684L137.502,250.224L135.321,251.47L132.207,247.733L133.453,243.373L131.498,240.909L129.1,240.981L126.913,245.554L122.705,242.326L123.115,249.083L127.846,250.847L131.272,255.83L121.902,257.698L120.943,262.235L117.945,262.41L114.878,264.869L109.304,262.737L106.947,264.7L108.047,266.45L107.182,270.673L107.759,275.554L108.912,276.081L108.152,277.795L113.161,287.217L119.407,281.669L121.479,281.861L128.919,287.882L132.735,289.172L134.909,285.715L139.967,288.908L143.585,287.296L145.209,282.784L151.448,281.598L153.15,275.83L155.325,274.313L160.278,274.51L162.373,275.796L162.479,280.312L164.549,285.022L163.134,290.356L169.475,288.611L170.916,292.166L167.72,294.305L167.327,296.804L168.506,297.89L164.313,302.624L157.683,304.958L157.002,302.033L144.371,304.959L141.278,299.141L137.742,299.963L136.982,294.569L133.182,290.753L129.645,295.289L129.775,299.305L133.077,302.198L130.849,308.298L132.078,308.889L128.121,308.134L127.65,311.32L122.959,313.946L122.591,315.883L131.946,320.41L135.038,320.017L133.831,321.559L134.434,323.625L132.521,323.526L132.992,326.313L130.764,329.655L129.454,328.771L129.427,325.068L126.781,325.92L122.876,324.084L120.439,326.28L121.776,331.884L119.208,333.391L120.387,335.978L121.017,338.924L122.956,342.295L128.774,335.388L131.316,335.617L132.705,333.488L133.648,335.879L131.499,337.189L129.77,341.019L129.822,348.084L132.914,351.942L131.918,355.274L135.822,356.091L139.805,362.883L143.159,363.471L144.023,368.021L147.474,365.948L155.01,367.706L165.521,363.788L171.785,368.587L177.629,370.053L179.629,369.053L187.309,366.255L189.101,364.51L188.964,361.323L194.042,358.32L199.184,356.363L200.779,353.145L205.073,353.925L211.612,349.877L217.218,343.961L219.875,337.327L225.518,336.745L223.758,317.179L227.496,305.034L225.547,304.325L224.762,301.949L230.745,295.045L229.097,292.15L220.146,290.787L215.847,287.1L209.058,284.302L205.426,285.7L202.792,282.862L204.847,274.977L201.264,275.878L204.077,270.786L202.736,262.389L207.377,258.056L210.681,256.985L211.679,253.026L210.863,249.0L205.226,245.997L204.264,242.698L201.052,243.04L197.964,241.515L194.587,229.028L192.633,230.071L189.062,228.719L184.964,230.648L180.505,227.07L182.078,220.84L180.111,219.963L176.457,223.699L172.386,223.032L168.952,210.676L164.281,210.676L165.526,207.873L160.797,203.465L159.472,204.043L153.915,208.297z" stroke="#ffffff" stroke-width="0.6" />
<path id="KR-42" title="Gangwon" class="land" d="M280.637,163.399L284.776,168.775L287.188,177.882L290.883,182.749L289.705,184.948L295.207,192.541L294.84,194.637L298.719,200.326L299.556,205.944L303.541,211.127L302.727,212.256L304.746,214.979L303.829,215.975L304.746,220.024L310.326,226.591L311.035,229.607L316.17,234.014L315.672,235.902L321.019,244.311L325.107,248.048L325.028,250.529L329.64,257.006L346.568,275.456L345.363,280.103L352.229,287.021L351.653,290.773L353.592,295.938L358.753,301.232L359.854,306.26L364.678,310.004L366.38,316.865L369.235,318.375L369.708,320.9L371.359,320.966L374.713,327.261L373.245,328.375L373.113,332.536L376.889,341.065L372.619,341.779L365.457,347.385L363.9,349.564L365.457,353.613L358.936,353.774L356.282,351.507L350.731,350.081L348.188,352.591L340.774,349.981L337.435,350.696L335.038,348.693L331.202,354.235L327.154,354.235L320.925,349.876L318.911,350.06L317.258,355.883L312.282,354.767L298.23,349.237L294.651,346.329L286.538,347.708L283.071,341.247L278.339,341.433L274.496,343.812L271.526,340.354L274.784,338.333L277.238,334.247L271.565,334.585L265.995,330.915L263.544,331.502L261.758,333.946L258.113,333.038L254.445,336.112L249.378,336.97L247.332,329.829L243.074,329.388L238.742,333.011L239.314,339.489L236.167,341.587L230.815,340.53L227.19,343.336L223.141,340.222L222.518,325.896L224.076,324.651L223.764,317.178L227.501,305.033L225.552,304.323L224.768,301.947L230.751,295.043L229.103,292.148L220.152,290.785L215.853,287.098L209.064,284.3L205.432,285.698L202.798,282.86L204.853,274.975L201.27,275.876L204.083,270.784L202.741,262.387L207.382,258.055L210.687,256.984L211.685,253.024L210.869,248.999L205.231,245.995L204.269,242.696L201.056,243.038L197.968,241.513L194.591,229.026L192.637,230.069L189.065,228.717L184.967,230.646L180.507,227.068L182.081,220.838L180.113,219.961L176.459,223.697L172.388,223.03L168.956,210.674L164.285,210.674L165.53,207.871L160.801,203.462L164.835,200.217L168.194,200.597L174.872,197.543L179.879,199.257L190.203,197.08L199.417,201.069L207.639,196.843L210.237,198.276L216.674,198.537L226.939,196.122L230.596,200.713L234.517,199.606L236.625,197.371L242.905,199.208L254.076,199.75L257.05,197.316L260.383,197.042L273.969,184.7L276.941,175.523L276.415,166.459L280.637,163.399z" stroke="#ffffff" stroke-width="0.6" />
<path id="KR-43" title="North Chungcheong" class="land" d="M213.488,469.625L211.308,463.387L209.127,461.518L209.75,452.798L207.882,449.685L201.262,448.129L200.096,444.391L202.276,432.557L200.958,425.521L200.72,422.902L198.228,420.412L195.37,422.804L195.76,420.863L194.377,420.683L192.306,423.689L190.754,418.231L184.738,419.067L186.44,408.566L183.108,408.37L182.657,404.218L179.854,400.792L182.035,400.169L182.346,397.366L180.789,395.187L185.772,387.402L189.509,387.713L191.066,385.844L189.82,382.107L186.706,379.928L182.754,379.45L182.915,377.459L180.846,376.266L180.616,373.612L176.876,369.282L187.315,366.253L189.107,364.508L188.97,361.321L194.048,358.318L197.181,353.13L199.462,354.297L200.785,353.144L205.08,353.925L209.127,350.188L211.619,349.876L212.242,342.091L217.225,343.959L219.881,337.326L222.924,336.744L227.19,343.336L230.814,340.53L236.167,341.587L238.742,333.011L243.074,329.388L247.332,329.829L249.378,336.97L254.445,336.112L258.113,333.038L261.758,333.947L263.544,331.503L265.995,330.915L271.565,334.585L277.238,334.247L274.784,338.333L271.526,340.354L274.496,343.812L278.339,341.433L283.071,341.248L286.537,347.709L294.651,346.329L298.23,349.237L305.665,350.301L308.039,352.435L305.839,354.589L303.698,354.343L290.405,365.264L286.422,372.483L288.475,377.331L285.637,381.22L276.102,383.156L273.615,378.242L269.204,374.43L266.41,377.814L265.6,381.607L258.426,378.867L255.287,382.576L252.77,381.326L248.91,388.001L252.297,393.237L242.015,390.622L239.146,394.347L234.903,395.767L233.223,398.138L233.705,400.355L226.175,407.492L232.257,409.717L236.297,415.188L233.864,417.782L233.652,427.863L232.372,429.875L234.179,433.429L230.524,438.289L230.455,442.566L232.604,444.342L236.012,441.786L241.988,446.669L246.2,445.047L248.216,445.742L250.243,451.842L249.649,453.12L246.534,451.713L244.131,453.136L242.951,454.874L243.715,461.393L241.963,462.853L240.926,467.482L239.089,470.075L236.22,470.979L232.404,473.613L229.514,471.335L224.176,474.633L221.578,474.637L215.634,471.268L213.488,469.625z" stroke="#ffffff" stroke-width="0.6" />
<path id="KR-44" title="South Chungcheong" class="land" d="M211.308,463.387L209.128,461.518L209.75,452.798L207.881,449.685L201.261,448.13L195.736,453.111L192.0,450.93L189.197,443.767L187.64,443.767L187.328,451.864L185.148,454.045L184.214,450.931L177.361,438.474L171.218,421.22L167.854,400.367L166.373,391.487L169.064,390.41L175.791,394.446L177.785,398.185L180.785,395.185L185.767,387.4L189.504,387.712L191.061,385.843L189.816,382.106L186.702,379.926L182.749,379.448L182.91,377.457L180.841,376.263L180.612,373.609L176.871,369.279L171.786,368.582L165.522,363.783L155.011,367.701L147.475,365.943L135.98,368.427L131.761,357.785L123.899,354.975L117.557,354.746L105.004,347.36L101.335,352.362L101.073,354.91L94.444,353.178L88.861,355.007L89.176,356.837L94.575,358.47L92.924,359.809L89.544,359.776L90.986,359.613L91.902,362.257L94.025,361.605L94.89,363.433L97.484,362.52L96.2,364.641L98.689,366.6L95.387,367.579L92.374,369.569L92.427,374.885L90.776,371.363L89.178,371.069L88.052,373.743L89.597,376.808L86.846,376.71L85.484,378.796L84.515,376.45L87.79,374.787L85.929,372.473L89.335,367.874L86.531,364.806L87.475,360.269L85.667,359.323L84.539,359.291L85.115,366.799L80.397,365.134L78.04,367.027L77.123,366.244L76.625,368.495L74.763,368.364L76.886,371.888L74.815,374.627L76.755,380.624L74.16,377.462L74.213,373.746L72.012,373.062L72.955,375.344L71.776,379.743L68.525,381.698L70.596,384.499L69.233,389.415L72.325,386.745L71.172,383.066L76.257,383.652L75.235,384.987L78.38,385.476L77.122,387.819L79.061,387.819L77.515,389.74L73.952,388.21L72.117,389.675L72.668,392.962L76.573,393.352L77.646,391.042L80.581,390.002L80.267,388.179L84.224,386.746L82.6,391.369L82.915,393.517L85.09,393.809L86.163,396.119L84.695,402.946L85.717,404.669L92.373,398.916L96.671,400.151L101.676,403.694L101.756,408.404L104.113,411.295L105.607,410.027L109.747,413.014L105.555,410.774L103.536,412.885L104.82,421.579L111.058,415.513L115.723,415.741L114.726,416.973L112.027,416.52L111.346,419.277L107.075,420.671L103.772,424.238L103.354,427.447L113.103,431.432L110.508,431.204L105.162,434.12L109.722,441.015L107.993,444.153L108.884,448.649L107.574,452.495L104.456,453.238L104.429,455.984L105.504,456.953L106.972,454.239L110.51,457.019L111.899,455.629L115.777,460.764L118.791,461.054L116.354,462.992L117.403,462.799L117.691,465.607L120.993,468.091L121.018,471.446L126.416,471.897L127.806,469.736L129.792,469.506L131.271,470.862L142.793,465.879L142.796,457.453L147.476,454.778L156.174,457.333L158.364,459.34L158.676,463.077L161.106,463.268L161.638,465.285L169.847,463.368L172.69,465.257L177.984,464.945L177.36,462.454L181.72,462.766L184.135,460.754L188.225,467.471L190.44,474.599L195.349,473.042L196.045,478.024L202.585,477.712L203.676,473.643L206.586,472.462L210.681,474.91L213.484,472.106L213.484,469.626L211.308,463.387z" stroke="#ffffff" stroke-width="0.6" />
<path id="KR-45" title="North Jeolla" class="land" d="M128.491,470.061L131.274,470.86L142.797,465.877L142.8,457.451L147.479,454.776L156.177,457.331L158.367,459.338L158.679,463.075L161.109,463.267L161.641,465.283L169.85,463.366L172.693,465.255L177.987,464.943L177.363,462.452L181.723,462.764L184.137,460.752L188.228,467.469L190.443,474.597L195.352,473.04L196.048,478.022L202.588,477.711L203.679,473.642L206.589,472.461L210.685,474.909L214.583,469.001L215.634,471.268L221.578,474.637L224.176,474.633L229.514,471.335L232.404,473.612L235.139,471.05L239.846,480.006L238.561,485.009L236.24,486.52L234.198,491.132L225.157,494.202L223.502,498.271L218.573,502.998L217.638,509.723L211.536,524.899L211.706,527.211L214.473,528.581L216.162,533.749L215.478,537.083L217.796,539.434L217.341,543.434L213.646,546.993L213.041,552.997L210.6,555.501L199.702,548.973L195.958,550.064L191.266,554.313L179.559,554.666L176.997,552.642L175.07,553.761L171.921,552.409L166.634,555.226L164.539,554.688L161.953,552.717L161.363,546.241L159.288,545.573L159.892,538.861L156.034,537.747L152.366,543.961L150.398,543.393L146.848,537.737L139.795,534.147L138.229,536.01L133.361,536.419L130.168,547.531L121.029,551.911L112.182,553.369L106.984,545.444L106.05,539.839L98.486,537.158L103.595,527.354L104.958,528.637L106.976,525.912L109.177,526.842L111.405,524.758L113.947,525.079L114.182,526.329L116.2,521.711L117.641,521.295L121.703,524.822L120.419,520.974L121.572,519.915L118.139,518.247L115.597,519.819L114.365,518.857L107.893,520.686L106.635,519.627L106.059,520.686L103.254,517.927L102.023,518.504L102.338,514.975L101.08,513.947L114.182,505.243L117.248,501.001L116.54,496.693L117.589,495.084L128.543,496.5L131.975,501.259L132.657,500.615L131.426,500.261L131.346,495.084L122.594,490.097L127.232,487.393L132.526,487.618L133.521,484.398L136.431,482.981L132.264,483.11L130.613,484.753L115.885,485.171L116.069,478.632L111.535,478.148L109.623,475.57L115.256,474.313L116.409,475.313L124.48,472.442L127.363,473.571L129.381,470.379L128.491,470.061z" stroke="#ffffff" stroke-width="0.6" />
<path id="KR-46" title="South Jeolla" class="land" d="M218.426,618.925L214.363,615.339L212.293,619.402L213.001,620.843L211.455,619.465L210.303,620.768L212.583,623.401L211.037,624.068L213.003,627.303L211.798,628.761L213.239,629.935L207.867,627.051L206.661,627.431L207.107,629.586L204.329,625.496L205.508,624.322L204.46,622.386L206.818,621.498L205.535,620.61L204.513,621.563L204.067,620.135L207.317,616.422L209.23,616.484L205.063,612.833L206.426,612.103L204.932,609.37L201.814,609.147L203.597,605.366L201.946,605.111L201.16,601.105L198.618,601.805L198.199,605.62L194.085,606.002L193.614,604.635L189.841,607.336L186.224,605.906L189.369,608.544L192.723,608.576L188.844,612.579L186.905,612.483L190.338,613.721L187.56,616.832L192.749,624.543L194.583,624.574L194.348,625.938L197.439,624.828L197.046,626.826L198.566,628.222L195.658,627.872L199.274,629.395L200.087,633.642L198.331,636.05L195.5,633.99L194.269,635.67L193.273,634.37L186.932,634.656L189.578,636.082L190.888,635.289L188.111,638.109L193.062,638.173L193.508,640.452L192.25,640.895L192.878,643.08L190.808,642.193L190.468,643.872L188.004,643.997L188.895,646.341L185.828,645.359L185.357,646.972L183.077,647.131L184.204,648.144L182.527,648.333L184.466,650.294L183.34,651.117L181.138,650.263L182.265,649.66L180.718,647.795L177.678,646.561L179.093,644.63L176.341,642.004L174.167,642.383L171.991,639.502L172.071,642.098L169.554,640.389L168.716,642.129L165.283,641.814L162.951,639.154L166.384,632.944L168.559,633.641L168.611,630.059L173.826,626.857L174.952,621.655L177.179,619.688L178.83,619.434L178.595,624.605L182.028,625.653L184.857,620.386L183.076,615.688L181.033,615.942L179.906,618.132L177.94,616.895L177.18,618.037L175.451,614.735L173.905,615.085L169.659,622.322L165.807,622.45L164.497,621.243L156.844,628.918L151.814,630.376L153.177,632.087L150.425,636.048L152.993,636.428L152.862,637.916L151.264,637.441L151.289,639.912L148.59,640.83L150.241,642.857L148.93,644.915L150.424,647.003L148.38,647.826L146.991,646.243L146.545,650.42L140.177,649.44L141.541,653.361L137.741,649.978L135.199,650.325L134.204,648.015L132.161,647.952L133.288,638.962L131.4,633.639L132.238,628.473L130.692,631.2L130.273,644.534L127.731,646.085L128.517,647.636L126.316,650.926L116.175,655.733L115.152,665.497L110.881,664.645L106.74,667.803L107.133,660.318L105.692,659.685L102.521,661.707L101.918,660.632L103.909,659.906L102.651,657.694L105.036,657.283L103.961,654.848L105.638,655.765L106.713,654.121L106.005,651.307L103.595,652.92L100.973,650.484L102.337,647.73L100.973,647.034L101.97,646.307L101.053,644.249L102.389,643.426L99.69,641.907L101.578,639.405L99.535,640.039L99.508,638.455L97.228,637.664L97.437,638.867L94.528,640.766L94.659,637.631L89.602,636.11L87.61,636.806L86.667,635.666L87.532,634.652L84.361,633.478L85.697,629.516L82.473,628.153L82.028,623.967L84.936,615.018L86.247,614.478L90.991,620.699L89.444,622.0L88.894,625.743L91.435,627.17L92.903,632.528L93.925,631.039L100.66,635.096L103.804,631.609L100.922,632.052L100.476,629.167L99.296,630.341L98.484,627.9L97.435,628.153L97.252,625.427L94.685,627.614L93.61,626.664L95.256,624.696L94.554,622.286L96.153,622.794L94.371,620.827L95.419,619.876L97.227,623.366L98.878,621.463L101.053,621.78L98.485,625.365L102.179,628.347L107.683,630.217L108.68,628.885L107.5,627.109L113.265,629.615L116.802,629.457L110.985,626.381L111.22,623.717L108.836,623.59L104.984,617.497L101.08,618.354L100.346,616.704L97.069,616.164L94.659,618.005L92.326,617.148L94.895,613.592L92.117,610.219L96.912,605.268L95.313,602.376L95.942,601.071L94.658,600.721L96.229,597.477L94.762,595.6L95.156,591.431L93.085,587.42L91.906,590.889L93.4,592.259L92.954,595.982L90.464,597.032L89.102,596.873L88.866,595.251L86.954,595.505L88.264,593.723L85.828,591.208L87.452,588.661L87.164,590.062L88.107,589.394L88.919,591.082L90.806,590.126L91.749,588.088L89.889,587.674L94.789,584.521L94.711,583.025L93.819,581.909L91.198,582.737L90.936,580.699L89.285,580.284L90.543,579.327L89.39,577.16L86.56,576.905L87.766,579.136L86.377,582.291L84.909,580.221L82.839,581.209L81.215,577.543L83.285,576.14L81.083,573.716L82.393,570.815L83.861,569.921L84.569,571.835L85.617,571.006L88.343,572.6L88.657,570.207L90.702,568.931L89.182,576.492L91.278,575.695L90.57,578.341L92.535,578.182L92.744,580.126L94.972,577.384L94.317,579.649L95.444,578.469L96.441,579.998L94.894,582.261L95.968,584.079L98.195,584.015L97.619,582.262L101.157,578.565L99.087,577.61L101.838,575.76L97.775,575.027L91.984,567.977L91.277,566.158L92.901,565.615L93.583,563.061L89.495,563.922L86.298,560.282L87.399,558.205L88.734,561.048L90.098,559.675L91.146,556.513L89.102,555.841L89.836,554.531L92.954,554.563L95.444,544.843L100.134,546.41L96.676,544.042L95.916,541.643L97.829,537.897L102.311,537.663L106.048,539.842L106.983,545.448L112.18,553.373L121.028,551.917L130.167,547.536L133.36,536.423L138.228,536.013L139.793,534.151L146.846,537.74L150.396,543.395L152.364,543.962L156.031,537.749L159.889,538.863L159.285,545.575L161.361,546.243L161.95,552.718L164.536,554.69L166.631,555.227L171.918,552.41L175.066,553.763L176.993,552.644L179.555,554.668L191.262,554.314L197.706,549.084L204.232,551.05L210.596,555.503L209.797,557.758L212.451,560.739L213.356,569.939L226.489,585.442L228.721,593.66L225.942,593.566L224.58,590.604L221.619,592.26L220.151,587.325L221.278,592.514L213.627,599.705L213.129,597.924L211.059,598.146L209.538,595.888L208.988,592.77L208.857,595.76L206.891,596.301L209.329,598.178L206.524,599.96L209.537,604.252L212.42,604.919L211.477,606.223L212.63,607.654L212.656,606.541L214.962,607.335L218.526,603.745L221.696,602.791L220.752,603.65L222.508,604.349L224.684,602.759L226.021,604.094L224.893,610.164L222.665,612.705L223.635,617.245L221.381,618.356L218.426,618.925z" stroke="#ffffff" stroke-width="0.6" />
<path id="KR-47" title="North Gyeongsang" class="land" d="M299.049,514.543L298.582,517.587L300.263,521.247L304.7,524.715L310.568,523.611L319.913,526.924L331.379,519.254L341.059,521.381L348.724,516.601L347.151,513.067L354.998,508.981L359.206,508.626L364.104,510.824L365.311,512.235L364.886,515.072L367.875,516.826L373.23,514.439L384.358,516.802L382.68,513.111L386.14,507.749L387.424,496.499L389.363,494.439L391.538,486.812L389.94,486.491L391.459,483.368L389.94,480.146L392.873,477.503L393.11,474.344L396.176,469.99L396.124,466.571L394.917,462.827L392.508,462.052L388.472,468.99L383.256,472.958L380.717,471.958L380.454,469.829L378.121,470.442L379.483,468.539L381.738,468.346L379.143,467.409L377.464,468.571L376.47,466.925L377.125,464.602L380.584,463.246L381.789,459.178L378.777,456.692L378.304,450.681L376.074,448.483L377.463,446.252L376.234,442.5L377.648,430.456L382.233,422.224L381.997,415.931L383.781,412.946L382.628,407.556L379.928,403.918L379.956,399.335L382.339,393.676L384.83,392.765L386.089,390.357L385.143,383.521L386.191,382.414L380.269,368.593L379.666,351.71L380.164,348.67L381.763,348.31L376.523,343.077L376.89,341.065L372.62,341.779L365.458,347.385L363.901,349.565L365.458,353.614L358.937,353.775L356.284,351.508L350.734,350.082L348.191,352.592L340.777,349.982L337.437,350.697L335.04,348.694L331.204,354.237L327.156,354.237L320.927,349.878L318.913,350.062L317.26,355.886L308.041,352.438L305.841,354.592L303.699,354.346L290.407,365.268L286.424,372.488L288.477,377.336L285.639,381.225L276.105,383.16L273.618,378.246L269.207,374.434L266.413,377.819L265.603,381.611L258.429,378.871L255.29,382.581L252.28,381.026L248.915,388.006L252.303,393.242L242.019,390.627L239.15,394.352L234.906,395.772L233.226,398.143L233.708,400.361L226.178,407.497L232.26,409.722L236.3,415.196L233.866,417.789L233.654,427.87L232.374,429.882L234.181,433.436L230.526,438.297L230.457,442.574L232.606,444.349L236.013,441.793L241.99,446.676L246.202,445.054L248.218,445.749L250.244,451.848L249.65,453.126L246.535,451.719L244.132,453.142L242.952,454.88L243.717,461.398L241.964,462.858L240.927,467.488L239.091,470.081L235.14,471.055L239.847,480.011L238.689,486.948L242.663,489.058L243.914,492.225L247.826,492.768L249.558,494.528L256.539,495.047L260.058,497.28L260.837,500.15L267.441,506.667L265.117,514.493L266.0,516.12L269.795,517.608L276.177,515.907L280.658,517.261L284.6,520.682L283.868,517.261L279.82,512.279L280.132,509.476L285.737,511.344L286.36,508.853L283.246,505.427L284.491,502.314L285.737,499.511L291.032,498.577L287.918,494.527L283.247,494.216L284.803,488.299L286.983,485.185L291.032,483.316L291.654,488.922L294.146,488.922L297.571,480.824L303.488,479.579L306.291,476.465L312.83,475.842L316.566,478.956L317.19,486.43L319.058,490.478L318.123,492.66L314.698,493.904L313.141,500.444L310.65,500.756L311.895,508.231L306.912,511.344L304.109,511.032L303.486,508.23L300.372,508.23L296.634,511.966L297.085,513.47L298.357,513.265L299.049,514.543z" stroke="#ffffff" stroke-width="0.6" />
<path id="KR-48" title="South Gyeongsang" class="land" d="M239.867,488.306L242.662,489.053L243.913,492.22L247.825,492.763L249.557,494.523L256.538,495.042L260.057,497.276L260.836,500.145L267.44,506.663L265.116,514.488L266.0,516.12L269.795,517.608L276.176,515.907L280.658,517.261L284.6,520.682L287.008,520.624L290.492,518.131L294.427,518.647L297.086,513.471L298.358,513.266L300.262,521.247L304.699,524.715L310.567,523.611L319.912,526.924L331.378,519.254L340.1,521.734L341.827,520.591L343.293,524.479L339.868,527.411L340.21,532.226L347.572,533.481L356.474,542.685L359.555,542.894L360.82,544.438L357.305,549.001L352.447,549.572L348.847,556.197L347.014,555.881L343.071,558.357L339.017,563.29L334.874,563.433L328.73,566.148L328.301,571.147L321.386,573.756L319.579,575.979L318.608,575.246L318.765,576.49L312.267,576.204L313.053,573.27L311.794,570.176L310.118,570.975L310.641,572.729L309.461,573.686L307.627,570.082L305.792,570.4L305.373,572.123L303.905,571.55L304.665,570.465L302.463,564.272L306.394,561.91L302.201,563.252L300.0,565.837L303.171,570.976L300.866,572.219L303.38,572.155L303.433,575.537L305.871,577.481L303.617,578.119L306.632,579.457L300.708,581.211L302.125,580.065L299.74,579.65L300.316,581.02L299.111,581.179L297.827,579.363L300.054,579.205L299.74,577.993L301.6,576.877L297.827,575.73L297.486,573.529L294.918,575.984L289.206,575.155L291.957,578.312L288.367,579.075L287.057,581.019L285.562,580.126L282.078,581.625L282.786,583.217L280.584,586.116L283.311,585.034L284.909,582.389L288.971,581.369L288.787,579.361L289.968,579.998L290.937,578.564L292.144,581.082L290.099,581.911L294.056,585.48L290.361,588.632L285.172,587.836L285.198,589.27L287.138,588.855L288.579,590.289L286.639,592.23L287.793,595.063L286.116,597.577L286.482,601.871L288.842,598.628L288.238,597.165L291.541,599.837L290.781,602.125L289.732,600.791L288.868,602.602L289.366,604.86L285.435,606.226L288.422,607.784L288.213,610.865L286.326,611.15L287.846,612.357L286.693,614.58L284.204,614.199L282.761,610.514L281.006,610.704L282.447,608.481L277.836,607.178L278.517,605.335L279.172,606.446L280.117,605.27L283.051,608.671L282.866,606.923L284.805,606.478L281.66,604.317L286.299,603.076L283.153,602.472L282.603,600.118L281.529,600.404L281.817,602.281L279.773,600.277L279.563,601.836L277.624,601.517L277.598,600.277L276.524,601.072L274.742,598.369L280.192,597.797L277.991,592.293L276.681,591.655L276.969,593.66L274.95,594.552L275.423,596.62L273.301,596.906L273.327,598.306L271.781,597.383L271.806,594.17L267.639,593.47L265.203,594.487L265.806,599.45L261.641,597.892L259.177,600.024L256.4,597.414L258.078,596.109L253.833,596.046L250.399,594.106L249.456,592.069L251.632,589.746L250.294,587.675L251.316,585.351L250.006,584.682L251.814,577.926L249.795,579.456L248.616,584.109L247.201,583.377L248.143,582.038L245.366,581.974L244.475,583.312L246.389,582.961L248.511,586.02L247.462,589.364L246.493,587.772L245.025,589.874L243.898,587.708L241.724,589.173L242.221,590.032L240.728,589.491L241.069,586.785L239.523,585.351L237.083,591.878L232.315,593.406L230.951,591.401L230.533,593.502L228.726,593.661L226.494,585.443L213.361,569.94L212.456,560.74L209.802,557.759L213.041,553.0L213.647,546.997L217.342,543.436L217.797,539.436L216.168,539.009L214.474,528.583L211.707,527.213L211.537,524.901L217.639,509.724L218.574,502.999L223.503,498.271L225.158,494.203L234.199,491.132L236.242,486.52L238.562,485.009L238.69,486.943L239.867,488.306z" stroke="#ffffff" stroke-width="0.6" />
<path id="KR-11" title="Seoul" class="land" d="M133.184,290.751L136.984,294.568L137.744,299.961L141.281,299.139L144.374,304.958L157.004,302.032L157.686,304.958L164.315,302.624L168.509,297.89L167.33,296.804L167.723,294.305L170.918,292.166L169.478,288.611L163.136,290.356L164.551,285.022L162.481,280.312L162.375,275.796L160.281,274.511L155.328,274.313L153.152,275.83L151.45,281.597L145.212,282.783L143.588,287.295L139.971,288.907L134.913,285.714L132.739,289.171L133.184,290.751z" stroke="#ffffff" stroke-width="0.6" />
<path id="KR-26" title="Busan" class="land" d="M361.096,544.776L365.106,545.538L367.446,548.547L364.939,556.159L364.679,557.341L364.992,558.97L362.003,562.897L362.239,565.994L359.907,566.665L359.331,568.867L352.098,569.825L352.909,576.172L347.564,575.214L342.559,578.659L340.358,577.86L336.875,575.118L334.805,577.541L332.76,578.275L331.111,578.275L330.113,578.275L325.684,577.765L324.191,576.139L320.496,577.414L321.385,573.756L328.3,571.147L328.729,566.148L334.873,563.433L339.016,563.29L343.07,558.357L347.013,555.881L348.846,556.197L352.446,549.572L357.304,549.001L360.819,544.438L361.096,544.776z" stroke="#ffffff" stroke-width="0.6" />
<path id="KR-27" title="Daegu" class="land" d="M297.086,513.471L294.427,518.646L290.492,518.130L287.012,520.710L284.6,520.682L283.867,517.261L279.819,512.278L280.13,509.476L285.735,511.344L286.358,508.853L283.245,505.427L284.49,502.313L285.735,499.511L291.03,498.577L287.916,494.527L283.245,494.217L284.801,488.3L286.981,485.186L291.03,483.316L291.652,488.923L294.144,488.923L297.569,480.825L303.486,479.58L306.289,476.466L312.828,475.843L316.564,478.957L317.188,486.431L319.057,490.479L318.122,492.66L314.697,493.904L313.141,500.444L310.649,500.756L311.895,508.23L306.912,511.344L304.109,511.032L303.486,508.23L300.372,508.23L296.635,511.967L297.086,513.471z" stroke="#ffffff" stroke-width="0.6" />
<path id="KR-28" title="Incheon" class="land" d="M113.164,287.218L119.41,281.67L121.482,281.862L128.922,287.883L132.739,289.172L133.183,290.753L129.646,295.289L129.776,299.306L133.078,302.199L130.85,308.299L128.096,307.708L126.131,309.974L122.488,309.514L118.452,306.36L117.509,302.089L117.011,304.39L115.544,304.291L115.728,301.695L113.71,302.484L114.915,297.849L119.134,297.06L118.216,295.383L115.805,296.501L114.417,291.698L115.151,289.987L115.177,289.789L113.164,287.218z" stroke="#ffffff" stroke-width="0.6" />
<path id="KR-29" title="Gwangju" class="land" d="M148.75,559.862L144.491,558.907L136.582,563.078L133.019,560.991L132.411,558.819L130.238,558.732L128.151,564.034L125.805,563.947L124.067,566.033L123.372,574.899L130.585,575.94L134.323,582.025L146.751,578.983L149.879,579.592L154.66,575.421L156.398,569.336L156.398,567.945L151.705,566.729L150.687,562.197L148.75,559.862z" stroke="#ffffff" stroke-width="0.6"/>
<path id="KR-30" title="Daejeon" class="land" d="M190.754,418.231L192.306,423.689L194.377,420.683L195.76,420.863L198.228,420.412L200.228,421.412L201.628,425.412L204.08,430.688L202.276,432.557L200.096,444.39L201.262,448.129L195.737,453.109L192.0,450.93L189.197,443.767L187.64,443.767L187.329,451.863L185.149,454.044L184.215,450.93L181.723,449.995L179.854,444.39L177.675,442.521L177.363,438.474L179.543,435.981L179.232,427.262L186.083,425.082L187.037,418.965L190.754,418.231z" stroke="#ffffff" stroke-width="0.6" />
<path id="KR-31" title="Ulsan" class="land" d="M360.297,509.05L365.073,511.411L365.901,516.178L367.873,516.827L373.229,514.44L384.239,516.991L384.934,518.44L382.103,532.065L379.299,532.932L377.806,531.329L375.211,534.564L375.761,536.069L373.506,543.528L375.289,546.022L372.616,546.407L369.261,550.724L367.277,550.053L365.105,545.538L361.14,545.538L359.555,542.896L356.474,542.687L347.571,533.482L340.209,532.228L339.868,527.412L343.292,524.48L341.826,520.593L348.723,516.604L347.744,512.575L354.997,508.983L360.297,509.05z" stroke="#ffffff" stroke-width="0.6" />
<path id="KR-50" title="Sejong" class="land" d="M175.795,394.447L169.069,390.411L166.378,391.488L167.858,400.367L166.512,415.165L168.53,419.739L171.221,421.22L172.701,431.982L177.363,438.474L179.543,435.981L179.232,427.262L186.083,425.082L187.037,418.965L184.738,419.067L186.44,408.566L183.107,408.37L182.657,404.218L179.854,400.792L182.035,400.169L182.346,397.366L180.789,395.187L178.351,395.389L175.795,394.447z" stroke="#ffffff" stroke-width="0.6" />
<path id="KR-49" title="Jeju" class="land" d="M163.558,698.789L160.413,701.068L156.325,708.47L151.267,708.375L148.149,711.62L139.161,712.742L134.602,716.361L131.903,715.394L131.379,716.673L127.762,715.987L122.469,717.639L120.634,715.8L116.441,715.424L113.139,716.923L108.92,715.8L105.828,717.827L105.854,720.788L102.631,720.321L99.906,716.298L95.031,713.461L93.197,710.466L93.197,705.346L102.317,696.571L102.762,693.758L106.956,692.069L107.401,690.1L114.423,687.722L115.603,688.472L124.565,684.188L133.292,683.718L140.761,681.811L149.906,679.212L155.986,679.838L163.297,684.188L164.241,686.439L167.306,691.223L166.415,694.476L165.681,695.351L163.558,698.789z" stroke="#ffffff" stroke-width="0.6" />
</g>
</svg>