<?xml version="1.0"?>
<svg xmlns="http://www.w3.org/2000/svg" version="1.2" baseProfile="tiny" width="800" height="944" viewBox="0 0 800 944" stroke-linecap="round" stroke-linejoin="round">
<path stroke="#000000" fill="#FFFFFF" d="M 642.82 444.94 648.77 455.06 644.6 461.17 644 472.68 631.34 474.94 623.96 473.34 616.76 480.26 609.13 483.92 596.02 479.56 594.29 469.41 596.19 459.43 595.29 450.36 588.45 444.74 585.96 436.17 577.25 431.62 579.08 423.77 570.25 419.74 560.64 423.79 555.65 429.43 545.83 429.18 541.95 432.03 541.13 431.88 545.67 413.93 534.38 399.99 531.6 393.48 532.68 380.26 525.91 376.44 521.11 360.46 513.85 351.34 499.77 345.16 488.53 346.06 484.98 341.93 487.05 332.43 491.27 325.08 491.74 317.17 488.95 309.92 492.42 291.62 496.42 281.27 508.86 283.39 515.29 279.82 515.06 268.99 518.33 264.43 517.24 258.75 518.46 245.46 527.45 242.44 533.44 245.69 548.59 231.01 544.33 224.26 548.77 204.46 559.74 199.03 563.83 193.95 567.61 180.62 571.55 173.83 570.21 169.75 577.81 164.45 581.82 157.68 587.87 180.94 595.83 188.23 609.31 189.97 612.82 193.89 627.43 190.87 632.5 192.72 636.08 207.25 636.2 215.28 644.01 217.78 656.85 218.62 665.84 223.05 666.54 230.19 671.03 232.82 673.47 241.2 671.03 244.07 673.79 256.09 668.56 267.44 666.31 277.95 656.6 276.64 647.67 282.88 646.72 288.15 637.7 293.11 626.58 301.41 624.53 312.86 630.85 321.24 623.14 331.01 622.71 335.92 632.79 348.19 633.42 359.21 619.82 369 614.55 375.05 617.96 384.41 624.05 378.37 632.4 383.13 641.26 376.49 644.07 382.61 642.05 386.9 638.06 405.16 637.21 417.68 639.24 422.5 631.21 436.12 642.82 444.94 Z" id="가평군"/>
<path stroke="#000000" fill="#FFFFFF" d="M318.51,443.31l2.14,-2.42l-3.28,-13.33l-4.97,-2.94l-12.88,7.41l-6.41,1.18l-3.04,15.32l-3.58,7.14l-0.45,14.53l-11.96,2.34l-0.73,5.48l-12.27,2.9l-18.07,-12.77l-9.38,-8.66l-23.15,-16.93l-7.26,-3.83l-7.26,-8.4l-4.12,-1l-25.19,-15.56l-4.03,-9.28l2.03,-10.3l8.55,8.02l5.89,-5.62l13.15,-5.05l26.14,0.67l3.26,-9.11l7.11,-5.01l23.95,-1.65l10.14,-5.35l9.77,6.5l6.92,0.82l8.74,-2.56l-0.9,-5.81l5.45,-6.3l9.81,-1.27l0.77,8.47l-4.63,2.86l1.67,15.73l-5.54,13.86l-2.26,13.25l17.12,-2.14l1.31,-9.39l4.63,-4.59l6.51,0.72l14.22,8.22l0.99,8.57l-6.13,7.16l0.66,13.66z" id="고양시"/>
<path stroke="#000000" fill="#FFFFFF" d="M 365.41 578.77 362.49 589.06 354.78 591.43 344.55 591.16 339.48 596.36 334.23 593.89 330.08 598.98 326.27 590.79 319.35 585.18 320.16 571.68 326.05 562.45 338.1 557.45 341.35 553.9 347.69 562.26 354.11 560.09 359.94 562.09 362.03 573.95 365.41 578.77 Z" id="과천시"/>
<path stroke="#000000" fill="#FFFFFF" d="M 285.03 572.88 283.59 582.06 279.49 591.38 272.49 591.84 272.91 597.79 261.09 596.68 256.4 590.6 252.28 561.24 245.64 558.5 249.74 552.73 249.49 546.45 256.14 548.83 269.31 534.98 270.51 541.33 277.34 554.52 278.24 560.89 282.38 563.34 285.03 572.88 Z" id="광명시"/>
<path stroke="#000000" fill="#FFFFFF" d="M 556.66 585.63 555.9 590.51 562.56 595.68 567.46 609.13 579.95 608.89 579.52 628.5 575.51 631.28 567.57 642.19 551.52 654.7 539.5 657.99 531.66 667.12 533.03 671.96 524.11 675.79 528.74 683.88 523.1 688.11 508.06 686.02 500.22 691.62 492.13 689.32 489.98 674.82 492.06 669.48 489.81 662.02 493.11 655.5 491.11 649.01 493.03 637.39 483.11 639.09 473.58 630.18 463.07 628.56 456.53 641.44 448.19 648.4 443.51 635.8 437.76 638.19 427.19 638.59 416.6 642.92 414.22 640.8 411.7 634.84 412.62 628.43 422.35 624.73 427.31 613.69 435.65 608.66 430.83 604.91 434.09 596.01 436.04 590.44 445.05 583.18 445.89 570.33 443.67 561.19 439.93 559.96 436.72 549.09 435.14 542.33 447.37 545.87 456.66 544.06 463.73 547.38 472.43 547.88 472.25 542.42 480.31 538.18 477.11 529.89 485.05 527.81 494.7 522.35 495.58 527.56 503.6 526.28 506.11 518.9 507.26 513.88 516.77 507.94 529.32 507.83 537.08 511.38 548.73 533.42 545.95 538.78 550.46 548.64 546.97 560.52 539.8 561.55 541.56 569.61 546.64 570.51 547.88 576.45 556.66 585.63 Z" id="광주시"/>
<path stroke="#000000" fill="#FFFFFF" d="M 432.55 476.89 431.49 478.27 420.81 485.41 409.8 486.91 396.97 493.48 394.92 490.32 394.97 480.12 399.23 475.17 404.2 460.77 403.23 451.02 396.69 449.15 400.8 442.47 400.63 435.08 408.95 435.76 415.72 432.76 421.24 437.2 417.64 448.17 422.22 464.63 430.45 467.51 427.1 472.97 432.55 476.89 Z" id="구리시"/>
<path stroke="#000000" fill="#FFFFFF" d="M 307.94 613.83 311.28 620.2 318.91 625.46 316.47 637.17 311.38 639.9 311.16 649.12 301.2 655.53 301.43 662.33 293.13 663.42 289.23 652.33 273.13 653.76 270.76 647.38 276.96 641.13 278.45 634.41 283.27 626.7 288.74 625.35 295.32 614.91 307.94 613.83 Z" id="군포시"/>
<path stroke="#000000" fill="#FFFFFF" d="M 159.02 339.5 160.29 347.24 165.77 358.42 168.26 372.89 164.65 394.19 162.62 404.49 166.65 413.77 191.84 429.33 195.96 430.33 203.22 438.73 210.48 442.56 233.63 459.49 228.58 473.4 217.53 472.95 214.66 470.77 204.84 475.5 202.3 469.03 191.86 468.11 182.71 459.17 175.26 448.63 168.75 445.25 163.43 439.35 152.14 436.91 149.96 442.56 144.34 444.03 139.13 457.77 129.21 458.94 118.72 467.24 110.38 469.77 102.33 460.93 99.53 455.39 97.7 443.21 91.48 434.71 87.47 424.13 93.01 421.58 91.95 414.6 85.02 411.13 88.69 403.54 87.11 389.51 82.5 383.81 87.64 359.68 81.07 350.91 80.43 345.31 83.66 332.38 100.78 341.04 111.82 351.29 121.75 352.44 129.53 348.83 135.57 342.58 142.55 339.19 159.02 339.5 Z" id="김포시"/>
<path stroke="#000000" fill="#FFFFFF" d="M 541.13 431.88 541.28 431.89 541.26 431.99 529.74 447.58 527.11 455.39 525.03 469.4 519.57 483.86 510.57 499.84 506.22 511.27 506.11 518.9 503.6 526.28 495.58 527.56 494.7 522.35 492.33 515.07 469.01 500.65 465.85 491.38 459.35 486.61 449.64 471.46 439.46 469.65 432.55 476.89 427.1 472.97 430.45 467.51 422.22 464.63 417.64 448.17 421.24 437.2 415.72 432.76 408.95 435.76 400.63 435.08 391.62 433.55 389.85 423.51 392.33 415.86 390.3 410.02 392.52 403.32 384.5 398.48 386.07 394.58 393.73 393.45 399.77 389.25 401.38 383.86 407.61 380.49 407.61 369.48 410.31 363.29 419.96 362.12 419.79 358.29 429.29 364.15 434.01 356.82 440.93 352.24 447.06 354.2 455.86 353.44 462.39 359.82 470.46 353.33 481.22 349.23 484.98 341.93 488.53 346.06 499.77 345.16 513.85 351.34 521.11 360.46 525.91 376.44 532.68 380.26 531.6 393.48 534.38 399.99 545.67 413.93 541.13 431.88 Z" id="남양주시"/>
<path stroke="#000000" fill="#FFFFFF" d="M 390.79 211.29 391.36 220.01 395.06 224.02 392.97 229.9 399.24 232.7 404.11 240.19 406.4 248.3 419.81 251.92 421.83 261.37 424.91 263.48 420.46 276.25 409.68 278.28 407.71 282.48 399.95 286.93 388.95 278.86 373.92 280.78 367.35 271.29 366.17 263.81 352.97 260.71 347.12 256.37 344.85 249.4 348.66 246.71 346.78 240.57 355.62 231.76 357.16 221.84 362.92 220.53 365.9 210.18 370.41 205.02 377.3 208.78 385.21 208.03 390.79 211.29 Z" id="동두천시"/>
<path stroke="#000000" fill="#FFFFFF" d="M 249.49 546.45 249.74 552.73 245.64 558.5 233.71 557.03 219.75 549.93 214.09 549.93 204.55 540.56 200.45 539.51 202.32 520.46 210.43 519.34 210.7 504.16 216.52 497.88 243.88 503.3 247.12 511.24 242.33 531.47 242.09 544.62 249.49 546.45 Z" id="부천시"/>
<path stroke="#000000" fill="#FFFFFF" d="M430.83,604.91l4.82,3.75l-8.34,5.03l-4.96,11.04l-9.73,3.7l-0.92,6.41l2.52,5.96l-15.6,2.63l-12.53,-10.86l-17.8,-6.37l-4.78,-5.38l-8.84,-2.19l8.42,-21.65l-0.6,-7.92l2.92,-10.29l12.06,0.11l2.27,-4.86l7.61,-4.78l3.16,-7.47l5.87,-4.25l7.11,0.01l8.37,-8.41l5.78,0.5l13.12,3.55l4.26,-2.15l1.7,-1.93l3.21,10.87l3.74,1.23l2.22,9.14l-0.84,12.85l-9.01,7.26l-1.95,5.57z" id="성남시"/>
<path stroke="#000000" fill="#FFFFFF" d="M370.61,657.01l1.36,12.88l10.15,2.33l5.8,-3.35l-0.89,5.67l-10.7,9.36l-0.46,1.15l9.24,12.2l-2.53,6.15l-7.17,4.87l-5.97,5.02l-5.04,-0.1l-1.56,-2.68l-3.45,-1.19l-9.13,8.8l-28.54,-6.21l-5.61,-3.68l-5.91,-12.03l-8.74,-2.51l-1.75,-12.06l3.1,-8.47l0.06,-7.98l5.12,1.86l10.01,-1.29l3.27,-5.16l-0.03,-9.51l2.57,-5.3l5.57,3.56l10.39,-8.09l4.47,-0.48l5.08,-7.89l8.23,4.39l-1.05,5.26l4.39,10.8z" id="수원시"/>
<path stroke="#000000" fill="#FFFFFF" d="M 245.64 558.5 252.28 561.24 256.4 590.6 261.09 596.68 272.91 597.79 272.05 602.21 275.18 614.44 266.28 624.98 253.5 624.25 242.67 623.45 239.97 627.6 225.68 632.56 223.03 640.88 216.08 637.38 209.63 638.72 197.49 646.34 185.97 660.78 179.84 659.22 172.52 653.57 166.03 652.88 161.06 646.54 130.98 656.57 130.03 656.1 168.96 643.2 170.41 633.22 177.1 629.1 205.94 592.97 205.98 583.19 214.65 579.99 214.8 570.03 219.6 559.99 219.75 549.93 233.71 557.03 245.64 558.5 Z" id="시흥시"/>
<path stroke="#000000" fill="#FFFFFF" d="M4.53,789.32l3.54,3.13l-0.21,8.65l-6.86,-4.51zM114.23,671.91l13.07,7.99l8.77,7.7l6.03,-2.78l2.98,5.9l-3.15,4.93l2.96,10.39l6.42,10.99l-1.55,18.25l-5.52,-0.32l2.73,-8.42l-11.06,-5.66l-1.57,-5.2l-6.75,-4.89l-4.62,2.42l-1.22,8.6l-12.95,-1.95l-3.9,9.17l-4.84,5.71l-8.64,-5.31l-1.52,-12.66l1.57,-5.99l5.23,0.04l3.85,-5.95l1.18,-8.84l-2.13,-7.43l-4.57,-6.03l7.77,-2.21l6.87,-7.94l0.38,-2l0.92,-0.83l19.06,-13.49l0.95,0.47l-2.9,1.62l-15.14,10.65l-2.79,1.77l2.66,1.34zM221.17,672.32l-8.08,-0.62l-27.12,-10.92l11.52,-14.44l12.14,-7.62l6.45,-1.34l6.95,3.5l2.65,-8.32l14.29,-4.96l2.7,-4.15l10.83,0.8l12.78,0.73l8.9,-10.54l5.05,1.41l3.04,10.85l-4.82,7.71l-1.49,6.72l-6.2,6.25l2.37,6.38l16.1,-1.43l3.9,11.09l8.3,-1.09l1.44,2.85l-0.06,7.98l-3.1,8.47l-6.38,-7.48l-7.88,-1.19l-6.06,6.38l-15.15,0.8l0.61,4.46l-10.47,4.43l-0.43,-0.16l-4.16,-6.78l-4.1,-1.79l-5.88,-12.14z" id="안산시"/>
<path stroke="#000000" fill="#FFFFFF" d="M 571.24 772.25 579.02 771.17 588.11 783.45 610.13 788.31 610.63 792.95 617.11 805.16 619.74 816.55 615.52 828.21 603.63 835.02 597.27 836 587.61 842.36 588.78 854.98 571.92 870.51 553.05 873.08 548.04 882.72 557.02 893.94 549.24 896.12 542.97 906.01 531.09 904.11 516.24 915.45 506.51 919.88 499.08 919.96 503.42 928.71 500.13 937.15 493.12 943 485.37 930.79 471.06 927.81 458.44 919.24 448.27 904.57 428.32 897.74 424.88 892.23 416.42 891.32 408.78 894.44 403.64 891.75 406.16 887.79 415.07 885.41 410.58 880.01 412.12 876.2 422.32 873.2 417.24 865.36 421.49 852.76 416.66 849.45 404.9 847.72 401.93 853.2 395.92 847.03 407.86 835.58 409.28 831.39 393.99 824.93 394.89 820 404.22 819.72 405.88 810.24 415.23 811.92 422.69 809.96 428.93 813.06 438.28 813.38 444.68 811.07 452.79 798.53 467.31 789.5 474.75 788.45 476.78 778.07 475.09 773.04 482.45 766.04 487.88 781.04 494.82 781.95 502.41 796.15 507.62 800.35 516.28 790.82 525.48 801.12 533.43 799.18 545.82 800.06 551.11 798.66 555.16 806.58 560.33 808.27 569.4 804.03 569.54 794.93 563.4 792.99 570.88 778.71 571.24 772.25 Z" id="안성시"/>
<path stroke="#000000" fill="#FFFFFF" d="M330.08,598.98l-5.18,9.44l-5.99,17.04l-7.63,-5.26l-3.34,-6.37l-12.62,1.08l-6.58,10.44l-5.47,1.35l-3.04,-10.85l-5.05,-1.41l-3.13,-12.23l0.86,-4.42l-0.42,-5.95l7,-0.46l4.1,-9.32l1.44,-9.18l5.62,3.33l10.3,-10.47l6.41,9.31l4.32,-1.96l8.48,-1.41l-0.81,13.5l6.92,5.61z" id="안양시"/>
<path stroke="#000000" fill="#FFFFFF" d="M 346.78 240.57 348.66 246.71 344.85 249.4 347.12 256.37 352.97 260.71 366.17 263.81 367.35 271.29 373.92 280.78 388.95 278.86 399.95 286.93 403.13 293.65 403.76 301.55 407.04 310.69 404.54 330.71 398.05 341.32 391.03 343.83 373.47 353.59 363.5 350.45 350.57 349.03 342.22 358.17 343.89 372.73 347.41 377.95 349.04 394.7 343.14 405.8 336.43 409.46 322.21 401.24 315.7 400.52 311.07 405.11 309.76 414.5 292.64 416.64 294.9 403.39 300.44 389.53 298.77 373.8 303.4 370.94 302.63 362.47 302.06 356.66 306.06 345.46 297.17 334.09 289.04 333.7 292.61 316.08 294 299.91 305.49 296.17 312.36 281.48 312.41 259.91 322.62 240.1 322.57 233.51 326.8 231.05 330.78 234.28 342.16 236.96 346.78 240.57 Z" id="양주시"/>
<path stroke="#000000" fill="#FFFFFF" d="M 541.28 431.9 541.13 431.88 541.28 431.89 541.28 431.9 Z M 541.28 431.9 541.95 432.03 545.83 429.18 555.65 429.43 560.64 423.79 570.25 419.74 579.08 423.77 577.25 431.62 585.96 436.17 588.45 444.74 595.29 450.36 596.19 459.43 594.29 469.41 596.02 479.56 609.13 483.92 616.76 480.26 623.96 473.34 631.34 474.94 644 472.68 644.6 461.17 648.77 455.06 642.82 444.94 645.39 442.17 654.3 441.6 655.7 437.02 665.93 429.26 679.69 435.36 691.51 447.5 698.12 447.71 701.27 452.51 719.31 466.84 723.58 473.37 731.37 470.54 739.9 472.6 748.12 469.52 754.88 475.89 764.55 478.95 771.52 474.95 778.18 482.08 780.65 488.39 790.49 490.11 799 496.28 795.8 505.5 778.5 506.13 776.58 510.82 759.51 527.52 751.43 529.85 751.52 536.9 762.44 539.75 764.98 546.51 773.73 552.37 771.2 557.13 772.93 573.26 775.47 580.35 770.6 582.99 767.7 595.23 760.74 611.33 761.49 619.67 751.51 622.41 743.99 621.18 735.37 616.21 733.2 618.9 723.01 620.19 719.86 617.73 721.99 604.67 726.92 601.16 723.96 593.42 710.46 601.33 712.57 592.1 702.2 591.86 696.51 588.7 689.78 596.92 684.08 591.02 674.49 590.78 665 585.78 649.66 592.23 641.23 588.84 638.14 592.45 630.56 592.26 626.66 580.52 614.42 572.75 609.04 578.27 605.05 577.36 596.59 585 579.54 576.91 568.88 573.4 560.44 579.71 556.66 585.63 547.88 576.45 546.64 570.51 541.56 569.61 539.8 561.55 546.97 560.52 550.46 548.64 545.95 538.78 548.73 533.42 537.08 511.38 529.32 507.83 516.77 507.94 507.26 513.88 506.11 518.9 506.22 511.27 510.57 499.84 519.57 483.86 525.03 469.4 527.11 455.39 529.74 447.58 541.26 431.99 541.28 431.9 Z" id="양평군"/>
<path stroke="#000000" fill="#FFFFFF" d="M 751.51 622.41 750.62 636.44 753.28 644.63 752.96 653.61 756.02 666 748.94 669.52 748.79 676.29 752.17 686.39 750.28 696.64 744.84 708.78 746.14 721.03 739.38 729.03 733.81 747.83 728.64 747.24 722.12 758.07 721.81 764.77 716.89 769.14 717.06 776.49 713.31 779.81 703.31 779.45 697.72 776.87 691.26 769.62 680.5 766.45 679.64 759.16 673.33 760.56 672.05 754.17 664.67 747.55 662.73 742.97 650.85 744.82 652.91 751.56 642.11 751.45 626.96 754.55 621.66 743.98 627.41 737.47 627.82 730.76 624.86 717.02 624.6 708.99 630.26 705.4 626.39 685.74 629.27 675.37 633.71 672.05 635.77 661.38 626.39 657.13 618.26 641.59 611.7 642.19 594.71 626.24 582.85 632.43 579.52 628.5 579.95 608.89 567.46 609.13 562.56 595.68 555.9 590.51 556.66 585.63 560.44 579.71 568.88 573.4 579.54 576.91 596.59 585 605.05 577.36 609.04 578.27 614.42 572.75 626.66 580.52 630.56 592.26 638.14 592.45 641.23 588.84 649.66 592.23 665 585.78 674.49 590.78 684.08 591.02 689.78 596.92 696.51 588.7 702.2 591.86 712.57 592.1 710.46 601.33 723.96 593.42 726.92 601.16 721.99 604.67 719.86 617.73 723.01 620.19 733.2 618.9 735.37 616.21 743.99 621.18 751.51 622.41 Z" id="여주시"/>
<path stroke="#000000" fill="#FFFFFF" d="M 439.34 65.71 434.98 76.72 437.21 90.83 435.13 96.24 435.2 110.5 440.33 114.67 441.03 129.97 445.3 135.56 444.13 146.38 426.28 149.12 423.6 152.17 416.3 146.96 410.05 151.62 404.21 151.09 402.13 157.32 414.62 170.8 420.71 182.3 421.04 194.29 406.43 206.39 402.09 199.7 395.99 199.35 390.05 203.37 390.79 211.29 385.21 208.03 377.3 208.78 370.41 205.02 365.9 210.18 362.92 220.53 357.16 221.84 355.62 231.76 346.78 240.57 342.16 236.96 330.78 234.28 326.8 231.05 329.4 224.62 335.77 220.61 336.8 213.71 342.62 213.33 350.96 200.68 344.41 195.9 335.99 186.43 326.89 186.57 317.7 198.72 308.48 204.58 285.65 194.9 283.75 201.84 285.29 212.32 280.47 214.42 273.08 211 262.58 200.8 256.44 203.79 254.65 213.93 245.19 220.07 244.16 215.55 237.69 209.66 237.5 204.53 232.27 195.35 228.87 199.1 228.91 191.75 240.28 191.5 246.78 185.25 246.38 180.87 256.31 168.88 263.91 163.81 262.75 155.2 269.94 145.18 271.67 136.9 267.04 133.09 265.72 125.4 268.29 117.7 279.53 112.67 282.65 103.89 291.16 97.76 297.78 98.6 302.11 103.91 312.17 100.08 319.5 100.13 324.33 97.17 325.16 91.46 315.26 83.16 324.04 75.18 325.86 68.05 324.58 56.47 329.09 56.16 333.81 48.6 331.31 40.49 338.14 35.8 342.48 39.82 347.63 38.11 350.13 30.8 362.32 22.11 365.15 15.8 372.53 15.86 384.03 6.45 383.04 3.31 393.75 1 401.56 7.44 400.67 16.51 401.94 27.88 408.63 33.87 412.97 33.92 422.52 27.44 430.22 30.1 428.94 43.83 434.38 47.09 436.48 52.55 433.51 57.54 439.34 65.71 Z" id="연천군"/>
<path stroke="#000000" fill="#FFFFFF" d="M 394.76 773.81 386.53 780.18 385.69 785.44 378.37 786.34 373.99 781.82 363.32 784.03 358.11 778.65 352.22 759.06 341.98 756.59 343.12 740.35 353.79 735.67 364.04 738.19 373.91 736.2 377.56 746.44 377.57 757.17 382.37 761.71 390.36 763.81 394.76 773.81 Z" id="오산시"/>
<path stroke="#000000" fill="#FFFFFF" d="M413.6,725.14l-10.87,-3.03l-15.81,2.24l-10.43,-9.45l-1.08,-6.63l7.17,-4.87l2.53,-6.15l-9.24,-12.2l0.46,-1.15l10.7,-9.36l0.89,-5.67l-5.8,3.35l-10.15,-2.33l-1.36,-12.88l-9.72,-3.68l-4.39,-10.8l1.05,-5.26l-8.23,-4.39l-0.23,-5.93l5.58,-8.32l8.84,2.19l4.78,5.38l17.8,6.37l12.53,10.86l15.6,-2.63l2.38,2.12l10.59,-4.33l10.57,-0.4l5.75,-2.39l4.68,12.6l8.34,-6.96l6.54,-12.88l10.51,1.62l9.53,8.91l9.92,-1.7l-1.92,11.62l2,6.49l-3.3,6.52l2.25,7.46l-2.08,5.34l2.15,14.5l8.09,2.3l7.84,-5.6l15.04,2.09l-0.28,12.41l-4.48,20.53l6.36,9.29l10.57,5.57l4.32,-3.13l5.08,6.54l-3.47,6.39l8.72,3.1l13.5,2.34l-0.61,15.55l8.43,5.55l-0.36,6.46l-7.48,14.28l6.14,1.94l-0.14,9.1l-9.07,4.24l-5.17,-1.69l-4.05,-7.92l-5.29,1.4l-12.39,-0.88l-7.95,1.94l-9.2,-10.3l-8.66,9.53l-5.21,-4.2l-7.59,-14.2l-6.94,-0.91l-5.43,-15l-7.36,7l1.69,5.03l-2.03,10.38l-7.44,1.05l-14.52,9.03l-8.11,12.54l-6.4,2.31l-9.35,-0.32l-6.24,-3.1l-7.46,1.96l-9.35,-1.68l-7.74,-18.85l0.42,-5.57l5.78,-2.32l1.25,-10.08l3.81,-4.47l-0.87,-6.5l2.87,-5.83l8.1,-0.33l6.7,-6.83l0.13,-8.5l-4.76,-4.88l2.88,-5.02l-3.57,-8.89z" id="용인시"/>
<path stroke="#000000" fill="#FFFFFF" d="M 363.09 596.98 354.67 618.63 349.09 626.95 349.32 632.88 344.24 640.77 339.77 641.25 329.38 649.34 323.81 645.78 321.24 651.08 321.27 660.59 318 665.75 307.99 667.04 302.87 665.18 301.43 662.33 301.2 655.53 311.16 649.12 311.38 639.9 316.47 637.17 318.91 625.46 324.9 608.42 330.08 598.98 334.23 593.89 339.48 596.36 344.55 591.16 354.78 591.43 362.49 589.06 363.09 596.98 Z" id="의왕시"/>
<path stroke="#000000" fill="#FFFFFF" d="M 419.79 358.29 419.96 362.12 410.31 363.29 407.61 369.48 407.61 380.49 401.38 383.86 399.77 389.25 393.73 393.45 386.07 394.58 384.5 398.48 368.65 404.57 366.96 399.81 358.19 401.28 356.53 396.2 349.04 394.7 347.41 377.95 343.89 372.73 342.22 358.17 350.57 349.03 363.5 350.45 373.47 353.59 391.03 343.83 398.05 341.32 408.32 346.17 413.08 353.78 419.79 358.29 Z" id="의정부시"/>
<path stroke="#000000" fill="#FFFFFF" d="M 680.5 766.45 685.66 776.21 683.14 790.32 684.76 794.05 682.46 806.41 675.72 810.68 664.91 813.66 667.85 820.24 663.9 822.33 653.17 820.8 645.96 831.75 647.1 839.84 641.71 843.96 628.57 834.5 617.53 833.72 615.55 838.43 608.89 839.32 603.63 835.02 615.52 828.21 619.74 816.55 617.11 805.16 610.63 792.95 610.13 788.31 588.11 783.45 579.02 771.17 571.24 772.25 562.81 766.7 563.42 751.15 549.92 748.81 541.2 745.71 544.67 739.32 539.59 732.78 535.27 735.91 524.7 730.34 518.34 721.05 522.82 700.52 523.1 688.11 528.74 683.88 524.11 675.79 533.03 671.96 531.66 667.12 539.5 657.99 551.52 654.7 567.57 642.19 575.51 631.28 579.52 628.5 582.85 632.43 594.71 626.24 611.7 642.19 618.26 641.59 626.39 657.13 635.77 661.38 633.71 672.05 629.27 675.37 626.39 685.74 630.26 705.4 624.6 708.99 624.86 717.02 627.82 730.76 627.41 737.47 621.66 743.98 626.96 754.55 642.11 751.45 652.91 751.56 650.85 744.82 662.73 742.97 664.67 747.55 672.05 754.17 673.33 760.56 679.64 759.16 680.5 766.45 Z" id="이천시"/>
<path stroke="#000000" fill="#FFFFFF" d="M 326.8 231.05 322.57 233.51 322.62 240.1 312.41 259.91 312.36 281.48 305.49 296.17 294 299.91 292.61 316.08 289.04 333.7 297.17 334.09 306.06 345.46 302.06 356.66 302.63 362.47 292.82 363.74 287.37 370.04 288.27 375.85 279.53 378.41 272.61 377.59 262.84 371.09 252.7 376.44 228.75 378.09 221.64 383.1 218.38 392.21 192.24 391.54 179.09 396.59 173.2 402.21 164.65 394.19 168.26 372.89 165.77 358.42 160.29 347.24 159.02 339.5 164.04 306.51 158.06 299.95 168.76 291.3 175.46 279.97 170.8 276.15 164.83 266.12 167.67 260 167.45 253.27 161.68 245.49 162.39 236.25 165.07 231.73 164.59 220.97 173.38 219.67 181.65 208.11 190.69 214.55 201.88 209.28 213.96 201.34 219.53 205.68 228.87 199.1 232.27 195.35 237.5 204.53 237.69 209.66 244.16 215.55 245.19 220.07 254.65 213.93 256.44 203.79 262.58 200.8 273.08 211 280.47 214.42 285.29 212.32 283.75 201.84 285.65 194.9 308.48 204.58 317.7 198.72 326.89 186.57 335.99 186.43 344.41 195.9 350.96 200.68 342.62 213.33 336.8 213.71 335.77 220.61 329.4 224.62 326.8 231.05 Z" id="파주시"/>
<path stroke="#000000" fill="#FFFFFF" d="M 405.59 773.42 404.34 783.5 398.56 785.82 398.14 791.39 405.88 810.24 404.22 819.72 394.89 820 393.99 824.93 409.28 831.39 407.86 835.58 395.92 847.03 401.93 853.2 404.9 847.72 416.66 849.45 421.49 852.76 417.24 865.36 422.32 873.2 412.12 876.2 410.58 880.01 415.07 885.41 406.16 887.79 403.64 891.75 399.11 890.52 390.68 899.17 394.16 903.67 388.13 909.96 385.03 907.03 378.92 912.27 373.46 911.05 363.91 916.8 352.02 919.78 346.46 915.24 330.07 917.13 323.61 921.59 304.96 927.28 288.54 937.88 285.04 921.48 276.38 914.24 265.64 916.21 264.62 912.09 255.98 907.17 242.65 882.69 241.9 876.63 233.92 873.25 223.14 873.83 217.71 865.47 227.97 861 252.21 861.04 259.15 856.08 271.63 835.07 275.13 825.41 286.88 823.45 307.29 829.74 310.7 824.41 319.19 825.09 334.34 820.89 333.99 811.53 337.46 808.27 337.61 799.11 335.47 793.55 339.43 784.32 348.57 782.82 358.11 778.65 363.32 784.03 373.99 781.82 378.37 786.34 385.69 785.44 386.53 780.18 394.76 773.81 405.59 773.42 Z" id="평택시"/>
<path stroke="#000000" fill="#FFFFFF" d="M 581.82 157.68 577.81 164.45 570.21 169.75 571.55 173.83 567.61 180.62 563.83 193.95 559.74 199.03 548.77 204.46 544.33 224.26 548.59 231.01 533.44 245.69 527.45 242.44 518.46 245.46 517.24 258.75 518.33 264.43 515.06 268.99 515.29 279.82 508.86 283.39 496.42 281.27 492.42 291.62 488.95 309.92 491.74 317.17 491.27 325.08 487.05 332.43 484.98 341.93 481.22 349.23 470.46 353.33 462.39 359.82 455.86 353.44 447.06 354.2 440.93 352.24 434.01 356.82 429.29 364.15 419.79 358.29 413.08 353.78 408.32 346.17 398.05 341.32 404.54 330.71 407.04 310.69 403.76 301.55 403.13 293.65 399.95 286.93 407.71 282.48 409.68 278.28 420.46 276.25 424.91 263.48 421.83 261.37 419.81 251.92 406.4 248.3 404.11 240.19 399.24 232.7 392.97 229.9 395.06 224.02 391.36 220.01 390.79 211.29 390.05 203.37 395.99 199.35 402.09 199.7 406.43 206.39 421.04 194.29 420.71 182.3 414.62 170.8 402.13 157.32 404.21 151.09 410.05 151.62 416.3 146.96 423.6 152.17 426.28 149.12 444.13 146.38 445.3 135.56 441.03 129.97 440.33 114.67 435.2 110.5 435.13 96.24 437.21 90.83 434.98 76.72 439.34 65.71 444.8 83.67 451.4 88.45 461.5 98.87 463.83 91.45 468.33 92.18 470.85 85.87 479.8 81.56 484.34 75.62 485.18 69.85 494.37 68.06 497.49 77.21 496.08 88.63 489.84 99.44 495.98 114.46 509.42 113.61 514.39 128.06 523.49 131.21 524.38 123.94 538.72 119.78 545.53 111.97 557.37 115.16 559.97 122.5 564.75 123.04 574.7 116.7 578.73 118.52 581.26 126.25 582.28 137.63 581.82 157.68 Z" id="포천시"/>
<path stroke="#000000" fill="#FFFFFF" d="M 494.7 522.35 485.05 527.81 477.11 529.89 480.31 538.18 472.25 542.42 472.43 547.88 463.73 547.38 456.66 544.06 447.37 545.87 435.14 542.33 436.72 549.09 435.02 551.02 430.76 553.17 417.64 549.62 420.45 542.76 425.19 539.34 427.37 531.8 415.82 526.1 428.44 501.37 439.07 500.45 438.67 490.53 435.15 478.76 431.49 478.27 432.55 476.89 439.46 469.65 449.64 471.46 459.35 486.61 465.85 491.38 469.01 500.65 492.33 515.07 494.7 522.35 Z" id="하남시"/>
<path stroke="#000000" fill="#FFFFFF" d="M 198.16 844.55 205.87 832.75 167.46 794.72 165.33 782.05 162.24 776.12 170.81 763.33 165.92 761.09 152.68 765.41 153.95 750.12 158.08 742.22 149.68 739.69 154.38 722.43 153.88 714.37 148.02 705.11 147.03 694.59 151.26 688.57 146.4 680.74 155.17 674.85 162.67 674.31 167.71 679.17 161.76 685.01 162.29 688.79 183.69 679.27 188.53 673.36 196.26 671.91 204.86 675.87 211.06 675.84 233.24 671.06 243.18 675.83 245.84 682.55 249.91 682.82 253.95 688.87 254.38 689.03 264.85 684.6 264.24 680.14 279.39 679.34 285.45 672.96 293.33 674.15 299.71 681.63 301.46 693.69 310.2 696.2 316.11 708.23 321.72 711.91 350.26 718.12 359.39 709.32 362.84 710.51 364.4 713.19 369.44 713.29 375.41 708.27 376.49 714.9 386.92 724.35 402.73 722.11 413.6 725.14 420.88 722.17 424.45 731.06 421.57 736.08 426.33 740.96 426.2 749.46 419.5 756.29 411.4 756.62 408.53 762.45 409.4 768.95 405.59 773.42 394.76 773.81 390.36 763.81 382.37 761.71 377.57 757.17 377.56 746.44 373.91 736.2 364.04 738.19 353.79 735.67 343.12 740.35 341.98 756.59 352.22 759.06 358.11 778.65 348.57 782.82 339.43 784.32 335.47 793.55 337.61 799.11 337.46 808.27 333.99 811.53 334.34 820.89 319.19 825.09 310.7 824.41 307.29 829.74 286.88 823.45 275.13 825.41 271.63 835.07 259.15 856.08 252.21 861.04 227.97 861 223.69 850.43 202.41 850.21 198.16 844.55 Z M 213.66 826.74 209.42 827.6 210.39 811.74 213.86 801.63 207.05 794.73 214.3 782.74 222.89 782.49 233.74 776.39 231.03 766.95 227.46 763.26 227.76 755.64 223.97 752.45 217.78 758.26 201.3 756.52 198.19 766.43 192.77 770.96 191.29 777.45 176.8 790.06 167.77 794.26 205.93 832.37 213.66 826.74 Z" id="화성시"/>
</svg>